<svg width="19" height="19" viewBox="0 0 19 19" fill="none" xmlns="http://www.w3.org/2000/svg">
<path d="M0 19H19V5.96046e-08H0V19Z" fill="#808080"/>
<path d="M6.88281 15.9935L14.3956 16.0095L15.5755 14.6932L16.7638 16.0045H19V14.084L17.5994 12.5737L19 11.077V9.19643L6.88281 9.18554V15.9935Z" fill="white"/>
<path fill-rule="evenodd" clip-rule="evenodd" d="M7.69238 15.2472V9.93476H12.1968V11.1585H9.15077V11.9892H12.1242V13.1927H9.15077V14.0087H12.1968V15.2472L7.69238 15.2472Z" fill="#808080"/>
<path d="M17.1535 9.93483L15.6261 11.6186L14.1031 9.93483H12.1738L14.6663 12.5879L12.1739 15.2472H14.0506L15.5848 13.5465L17.1349 15.2472H18.9997V15.1717L16.5603 12.5879L18.9997 9.97668V9.93483H17.1535Z" fill="#808080"/>
<path d="M16.2466 3.14283L15.6227 4.88814L15.0008 3.14283H11.3949V5.4723L10.3689 3.14283H7.44809L4.44824 9.95085H19.0001V3.14283H16.2466Z" fill="white"/>
<path fill-rule="evenodd" clip-rule="evenodd" d="M8.20326 6.93625L8.91015 5.24655L9.61656 6.93625H8.20326ZM8.00068 3.88246L5.64355 9.19037H7.26027L7.70493 8.12751H10.1146L10.5589 9.19037H12.2158L9.86846 3.88246H8.00068Z" fill="#808080"/>
<path d="M12.1943 9.18947L13.6237 9.18949V5.54349L14.9797 9.18949H16.2644L17.5928 5.55587V9.20187L19.0003 9.18949V3.88161H16.8131L15.6362 7.1526L14.4669 3.88944L12.1943 3.88159V9.18947Z" fill="#808080"/>
</svg>
