<svg width="14" height="14" viewBox="0 0 14 14" fill="none" xmlns="http://www.w3.org/2000/svg">
<path d="M2.00474 4.09582C1.94905 4.04319 1.88353 4.00205 1.81194 3.97474C1.74035 3.94743 1.66408 3.93449 1.58749 3.93666C1.51089 3.93882 1.43548 3.95605 1.36554 3.98737C1.29561 4.01868 1.23253 4.06346 1.1799 4.11915C1.12728 4.17484 1.08613 4.24035 1.05882 4.31195C1.03152 4.38354 1.01857 4.45981 1.02074 4.5364C1.02291 4.61299 1.04014 4.68841 1.07145 4.75834C1.10276 4.82828 1.14755 4.89136 1.20324 4.94398L6.45324 9.90232C6.56154 10.0047 6.70494 10.0618 6.85399 10.0618C7.00304 10.0618 7.14643 10.0047 7.25474 9.90232L12.5053 4.94398C12.5622 4.8917 12.6082 4.82864 12.6405 4.75845C12.6728 4.68826 12.6909 4.61234 12.6937 4.53511C12.6964 4.45788 12.6838 4.38088 12.6565 4.30857C12.6292 4.23626 12.5879 4.17009 12.5348 4.1139C12.4818 4.05772 12.4181 4.01263 12.3474 3.98127C12.2768 3.9499 12.2007 3.93289 12.1234 3.9312C12.0461 3.92952 11.9693 3.94321 11.8974 3.97147C11.8255 3.99972 11.7599 4.04199 11.7044 4.09582L6.85399 8.67615L2.00474 4.09582Z" fill="#2F2D2E"/>
</svg>
