<svg width="81" height="30" viewBox="0 0 81 30" fill="none" xmlns="http://www.w3.org/2000/svg">
<path d="M73.4491 10.4515L63.3051 8.968C63.1981 8.95464 63.1046 8.92791 63.0645 8.91454C63.0333 8.88895 62.9968 8.87069 62.9576 8.86108L45.1821 0.307397C44.741 0.10692 44.2599 0.0133654 43.7787 0.0133654H36.3344C36.2943 3.06202e-07 36.2408 0 36.2008 0C36.1607 0 36.1072 3.06202e-07 36.0671 0.0133654H23.2233C21.7398 0.0133654 20.2429 0.347493 18.893 1.00238L5.31414 7.61812C4.1414 8.18553 3.1316 9.04089 2.37902 10.1043C1.62644 11.1677 1.15564 12.4046 1.01059 13.6993L0.0215781 22.2396C-0.0853423 23.1751 0.208689 24.1107 0.823481 24.8057C1.45164 25.5007 2.36046 25.9016 3.29601 25.9016H5.43442C5.12976 25.0427 4.96724 24.1398 4.95328 23.2286V23.1217C4.95328 18.5508 8.68213 14.8219 13.253 14.8219C17.8372 14.8219 21.566 18.5508 21.566 23.1217V23.2286C21.5527 24.1641 21.3789 25.073 21.0849 25.9016H59.0951C58.801 25.073 58.6273 24.1641 58.6139 23.2286V23.1217C58.6139 18.5508 62.3428 14.8219 66.927 14.8219C71.4978 14.8219 75.2267 18.5508 75.2267 23.1217V23.2286C75.2133 24.1641 75.0396 25.073 74.7455 25.9016H76.8839C78.7016 25.9016 80.1851 24.4314 80.1851 22.6272V18.23C80.1851 14.2873 77.3517 11.0129 73.4491 10.4515ZM34.8642 8.40667L21.9803 8.23292L26.3507 2.68639H34.8642V8.40667ZM41.6804 12.9508H41.6537L38.4862 12.8973C38.3431 12.8947 38.202 12.864 38.0708 12.8068C37.9397 12.7496 37.8211 12.6672 37.7218 12.5642C37.6225 12.4612 37.5445 12.3396 37.4922 12.2064C37.4399 12.0733 37.4143 11.9311 37.417 11.788C37.417 11.5207 37.5239 11.2802 37.6843 11.1064C37.7905 10.9875 37.9201 10.8918 38.065 10.8251C38.2098 10.7584 38.3668 10.7222 38.5263 10.7188L41.6938 10.7723C42.0279 10.7857 42.3219 10.9327 42.5091 11.1732C42.6828 11.3737 42.763 11.6143 42.763 11.8816C42.763 12.483 42.2685 12.9508 41.6804 12.9508ZM37.5373 8.43339V2.68639H43.7787C43.8723 2.68639 43.9926 2.69976 44.0594 2.73985L56.4488 8.68733L37.5373 8.43339Z" fill="#0171D3"/>
<path d="M19.6217 23.1215C19.6217 19.6239 16.7696 16.7531 13.2532 16.7531C9.73687 16.7531 6.88477 19.6239 6.88477 23.1215C6.91891 24.788 7.60487 26.3746 8.79546 27.5411C9.98606 28.7076 11.5864 29.3609 13.2532 29.3609C14.92 29.3609 16.5204 28.7076 17.711 27.5411C18.9016 26.3746 19.5875 24.788 19.6217 23.1215ZM11.5692 23.1215C11.5692 22.1993 12.331 21.4375 13.2532 21.4375C13.6882 21.4549 14.0997 21.6399 14.4013 21.9538C14.703 22.2677 14.8714 22.6862 14.8714 23.1215C14.8714 23.5569 14.703 23.9754 14.4013 24.2893C14.0997 24.6032 13.6882 24.7882 13.2532 24.8055C12.331 24.8055 11.5692 24.0571 11.5692 23.1215ZM66.9272 29.49C68.6151 29.4861 70.2326 28.8139 71.4261 27.6204C72.6196 26.427 73.2918 24.8094 73.2957 23.1215C73.2957 19.6239 70.4249 16.7531 66.9272 16.7531C65.2394 16.7569 63.6218 17.4291 62.4283 18.6226C61.2349 19.8161 60.5627 21.4337 60.5588 23.1215C60.5591 24.8105 61.2302 26.4301 62.4245 27.6243C63.6187 28.8186 65.2383 29.4897 66.9272 29.49ZM66.9272 21.4375C67.8494 21.4375 68.6112 22.1993 68.6112 23.1215C68.5939 23.5566 68.4089 23.968 68.095 24.2696C67.7811 24.5713 67.3626 24.7398 66.9272 24.7398C66.4919 24.7398 66.0734 24.5713 65.7595 24.2696C65.4456 23.968 65.2606 23.5566 65.2432 23.1215C65.2432 22.1993 65.9917 21.4375 66.9272 21.4375Z" fill="#0171D3"/>
</svg>
