<svg width="160" height="48" viewBox="0 0 160 48" fill="none" xmlns="http://www.w3.org/2000/svg">
<rect width="160" height="48" rx="10" fill="#0171D3"/>
<g clip-path="url(#clip0_245_1059)">
<path d="M37.1797 19.6724H10.8203C10.3669 19.6724 10 20.0393 10 20.4927C10 20.9461 10.3669 21.313 10.8203 21.313H11.6406V23.7739C11.6406 24.2273 12.0075 24.5942 12.4609 24.5942C12.9144 24.5942 13.2813 24.2273 13.2813 23.7739V21.313H34.7188V23.7739C34.7188 24.2273 35.0856 24.5942 35.5391 24.5942C35.9925 24.5942 36.3594 24.2273 36.3594 23.7739V21.313H37.1797C37.6331 21.313 38 20.9461 38 20.4927C38 20.0393 37.6331 19.6724 37.1797 19.6724Z" fill="white"/>
<path d="M34.5297 37.7036C34.6069 37.6109 34.6625 37.5023 34.6927 37.3855C34.7229 37.2687 34.7269 37.1467 34.7043 37.0283L32.4256 22.9536H24.8203V37.1797C24.8203 37.6331 25.1872 38 25.6406 38H33.8984C34.0189 37.9999 34.138 37.9733 34.2471 37.9221C34.3562 37.8709 34.4526 37.7963 34.5297 37.7036ZM22.3593 38C22.8128 38 23.1797 37.6331 23.1797 37.1797V22.9536H15.5744L13.2957 37.0283C13.25 37.2686 13.3141 37.5161 13.4703 37.7036C13.6265 37.8911 13.8572 38 14.1015 38H22.3593ZM19.0234 10C18.6285 10 18.2896 10.2812 18.2175 10.6689L16.4973 18.0318H23.1797V10.8203C23.1797 10.3669 22.8128 10 22.3593 10H19.0234Z" fill="white"/>
<path d="M25.6406 10H28.9766C29.3715 10 29.7104 10.2812 29.7824 10.6689L31.5028 18.0318H24.8203V10.8203C24.8203 10.3669 25.1872 10 25.6406 10Z" fill="white"/>
</g>
<path d="M52.792 22.5H51.0845V16.3174H51.0337L48.5454 22.4111H47.3394L44.8511 16.3174H44.8003V22.5H43.0928V13.3403H45.3145L47.917 19.834H47.9678L50.5703 13.3403H52.792V22.5ZM55.2168 14.4575C56.0124 13.6069 57.0894 13.1816 58.4478 13.1816C59.8062 13.1816 60.881 13.6069 61.6724 14.4575C62.4679 15.3081 62.8657 16.4634 62.8657 17.9233C62.8657 19.3791 62.4679 20.5322 61.6724 21.3828C60.8768 22.2334 59.8019 22.6587 58.4478 22.6587C57.0894 22.6587 56.0124 22.2334 55.2168 21.3828C54.4255 20.5322 54.0298 19.3791 54.0298 17.9233C54.0298 16.4634 54.4255 15.3081 55.2168 14.4575ZM60.2378 15.6318C59.7935 15.0648 59.1968 14.7812 58.4478 14.7812C57.6987 14.7812 57.0999 15.0648 56.6514 15.6318C56.207 16.1989 55.9849 16.9627 55.9849 17.9233C55.9849 18.8797 56.207 19.6414 56.6514 20.2085C57.0957 20.7713 57.6945 21.0527 58.4478 21.0527C59.1968 21.0527 59.7935 20.7713 60.2378 20.2085C60.6821 19.6414 60.9043 18.8797 60.9043 17.9233C60.9043 16.9627 60.6821 16.1989 60.2378 15.6318ZM67.7026 22.5H65.7856V14.9209H63.1387V13.3403H70.356V14.9209H67.7026V22.5ZM71.8096 14.4575C72.6051 13.6069 73.6821 13.1816 75.0405 13.1816C76.3989 13.1816 77.4738 13.6069 78.2651 14.4575C79.0607 15.3081 79.4585 16.4634 79.4585 17.9233C79.4585 19.3791 79.0607 20.5322 78.2651 21.3828C77.4696 22.2334 76.3947 22.6587 75.0405 22.6587C73.6821 22.6587 72.6051 22.2334 71.8096 21.3828C71.0182 20.5322 70.6226 19.3791 70.6226 17.9233C70.6226 16.4634 71.0182 15.3081 71.8096 14.4575ZM76.8306 15.6318C76.3862 15.0648 75.7896 14.7812 75.0405 14.7812C74.2915 14.7812 73.6927 15.0648 73.2441 15.6318C72.7998 16.1989 72.5776 16.9627 72.5776 17.9233C72.5776 18.8797 72.7998 19.6414 73.2441 20.2085C73.6885 20.7713 74.2873 21.0527 75.0405 21.0527C75.7896 21.0527 76.3862 20.7713 76.8306 20.2085C77.2749 19.6414 77.4971 18.8797 77.4971 17.9233C77.4971 16.9627 77.2749 16.1989 76.8306 15.6318ZM82.6133 14.8384V17.7583H84.2637C84.7461 17.7583 85.1206 17.6292 85.3872 17.3711C85.658 17.113 85.7935 16.7554 85.7935 16.2983C85.7935 15.854 85.6538 15.5007 85.3745 15.2383C85.0952 14.9717 84.7186 14.8384 84.2446 14.8384H82.6133ZM82.6133 19.1484V22.5H80.6963V13.3403H84.4478C85.493 13.3403 86.3055 13.6006 86.8853 14.1211C87.4692 14.6374 87.7612 15.3504 87.7612 16.2603C87.7612 16.8569 87.6131 17.3901 87.3169 17.8599C87.0249 18.3254 86.6187 18.6597 86.0981 18.8628L88.0278 22.5H85.8569L84.1494 19.1484H82.6133ZM94.4072 16.2412L92.668 22.5H90.8589L88.4341 13.3403H90.4209L91.8618 19.9736H91.9126L93.6265 13.3403H95.2451L96.959 19.9736H97.0098L98.457 13.3403H100.444L98.0127 22.5H96.2036L94.4644 16.2412H94.4072ZM106.614 22.5L105.916 20.2783H102.697L101.999 22.5H100.031L103.211 13.3403H105.465L108.651 22.5H106.614ZM104.284 15.0923L103.11 18.8438H105.503L104.329 15.0923H104.284ZM112.841 22.5H110.924V19.0786L107.737 13.3403H109.826L111.876 17.2505H111.92L113.977 13.3403H116.034L112.841 19.0786V22.5ZM123.651 22.5H121.734V14.9209H119.087V13.3403H126.304V14.9209H123.651V22.5ZM127.758 14.4575C128.553 13.6069 129.63 13.1816 130.989 13.1816C132.347 13.1816 133.422 13.6069 134.213 14.4575C135.009 15.3081 135.407 16.4634 135.407 17.9233C135.407 19.3791 135.009 20.5322 134.213 21.3828C133.418 22.2334 132.343 22.6587 130.989 22.6587C129.63 22.6587 128.553 22.2334 127.758 21.3828C126.966 20.5322 126.571 19.3791 126.571 17.9233C126.571 16.4634 126.966 15.3081 127.758 14.4575ZM132.779 15.6318C132.334 15.0648 131.738 14.7812 130.989 14.7812C130.24 14.7812 129.641 15.0648 129.192 15.6318C128.748 16.1989 128.526 16.9627 128.526 17.9233C128.526 18.8797 128.748 19.6414 129.192 20.2085C129.637 20.7713 130.236 21.0527 130.989 21.0527C131.738 21.0527 132.334 20.7713 132.779 20.2085C133.223 19.6414 133.445 18.8797 133.445 17.9233C133.445 16.9627 133.223 16.1989 132.779 15.6318ZM142.567 20.9131V22.5H136.645V13.3403H138.562V20.9131H142.567ZM149.625 20.9131V22.5H143.703V13.3403H145.62V20.9131H149.625Z" fill="white"/>
<path opacity="0.7" d="M43.2082 34.5V27.2273H47.7678V28.1719H44.3055V30.3878H47.5299V31.3288H44.3055V33.5554H47.8105V34.5H43.2082ZM52.3621 30.9666V31.8864H49.1377V30.9666H52.3621ZM58.4434 29.0455L56.4655 34.5H55.3291L53.3476 29.0455H54.4875L55.8689 33.2429H55.9257L57.3035 29.0455H58.4434ZM59.4413 34.5V29.0455H60.5031V34.5H59.4413ZM59.9775 28.2038C59.7929 28.2038 59.6343 28.1423 59.5017 28.0192C59.3715 27.8937 59.3064 27.7446 59.3064 27.5717C59.3064 27.3965 59.3715 27.2474 59.5017 27.1243C59.6343 26.9988 59.7929 26.9361 59.9775 26.9361C60.1622 26.9361 60.3196 26.9988 60.4498 27.1243C60.5824 27.2474 60.6487 27.3965 60.6487 27.5717C60.6487 27.7446 60.5824 27.8937 60.4498 28.0192C60.3196 28.1423 60.1622 28.2038 59.9775 28.2038ZM64.2185 36.6591C63.7852 36.6591 63.4124 36.6023 63.0999 36.4886C62.7897 36.375 62.5364 36.2247 62.3399 36.0376C62.1434 35.8506 61.9967 35.6458 61.8996 35.4233L62.8122 35.0469C62.8762 35.151 62.9614 35.2611 63.0679 35.3771C63.1768 35.4955 63.3236 35.5961 63.5083 35.679C63.6953 35.7618 63.9356 35.8033 64.2291 35.8033C64.6316 35.8033 64.9642 35.705 65.227 35.5085C65.4898 35.3144 65.6212 35.0043 65.6212 34.5781V33.5057H65.5537C65.4898 33.6217 65.3975 33.7507 65.2767 33.8928C65.1584 34.0348 64.995 34.1579 64.7867 34.2621C64.5783 34.3662 64.3073 34.4183 63.9735 34.4183C63.5426 34.4183 63.1543 34.3177 62.8087 34.1165C62.4654 33.9129 62.1932 33.6134 61.9919 33.218C61.7931 32.8203 61.6936 32.3314 61.6936 31.7514C61.6936 31.1714 61.7919 30.6742 61.9884 30.2599C62.1872 29.8456 62.4595 29.5284 62.8051 29.3082C63.1508 29.0857 63.5426 28.9744 63.9806 28.9744C64.3191 28.9744 64.5925 29.0312 64.8009 29.1449C65.0092 29.2562 65.1714 29.3864 65.2874 29.5355C65.4057 29.6847 65.4969 29.8161 65.5608 29.9297H65.6389V29.0455H66.6794V34.6207C66.6794 35.0895 66.5705 35.4742 66.3527 35.7749C66.1349 36.0755 65.8402 36.2981 65.4685 36.4425C65.0992 36.5869 64.6825 36.6591 64.2185 36.6591ZM64.2078 33.5376C64.5132 33.5376 64.7713 33.4666 64.982 33.3246C65.195 33.1802 65.356 32.9742 65.4649 32.7067C65.5762 32.4368 65.6318 32.1136 65.6318 31.7372C65.6318 31.3703 65.5774 31.0471 65.4685 30.7678C65.3596 30.4884 65.1998 30.2706 64.9891 30.1143C64.7784 29.9557 64.518 29.8764 64.2078 29.8764C63.8882 29.8764 63.6219 29.9593 63.4088 30.125C63.1958 30.2884 63.0348 30.5109 62.9259 30.7926C62.8193 31.0743 62.7661 31.3892 62.7661 31.7372C62.7661 32.0947 62.8205 32.4084 62.9294 32.6783C63.0383 32.9482 63.1993 33.1589 63.4124 33.3104C63.6278 33.4619 63.893 33.5376 64.2078 33.5376ZM69.1652 31.2614V34.5H68.1034V29.0455H69.1226V29.9332H69.1901C69.3155 29.6444 69.512 29.4124 69.7796 29.2372C70.0494 29.062 70.3892 28.9744 70.7987 28.9744C71.1704 28.9744 71.4959 29.0526 71.7753 29.2088C72.0547 29.3627 72.2713 29.5923 72.4252 29.8977C72.579 30.2031 72.656 30.5807 72.656 31.0305V34.5H71.5942V31.1584C71.5942 30.763 71.4912 30.4541 71.2852 30.2315C71.0793 30.0066 70.7964 29.8942 70.4365 29.8942C70.1903 29.8942 69.9713 29.9474 69.7796 30.054C69.5902 30.1605 69.4398 30.3168 69.3286 30.5227C69.2197 30.7263 69.1652 30.9725 69.1652 31.2614ZM76.4308 34.6101C75.8934 34.6101 75.4306 34.4953 75.0423 34.2656C74.6565 34.0336 74.3582 33.7081 74.1475 33.2891C73.9391 32.8677 73.835 32.3741 73.835 31.8082C73.835 31.2495 73.9391 30.7571 74.1475 30.331C74.3582 29.9048 74.6517 29.5722 75.0281 29.3331C75.4069 29.094 75.8496 28.9744 76.3563 28.9744C76.664 28.9744 76.9623 29.0253 77.2512 29.1271C77.54 29.2289 77.7992 29.3887 78.0289 29.6065C78.2585 29.8243 78.4396 30.1072 78.5722 30.4553C78.7048 30.8009 78.771 31.2211 78.771 31.7159V32.0923H74.4351V31.2969H77.7306C77.7306 31.0175 77.6737 30.7701 77.5601 30.5547C77.4465 30.3369 77.2867 30.1652 77.0807 30.0398C76.8771 29.9143 76.638 29.8516 76.3634 29.8516C76.0651 29.8516 75.8047 29.925 75.5821 30.0717C75.3619 30.2161 75.1915 30.4055 75.0708 30.6399C74.9524 30.8719 74.8932 31.1241 74.8932 31.3963V32.0178C74.8932 32.3823 74.9571 32.6925 75.085 32.9482C75.2152 33.2038 75.3963 33.3991 75.6283 33.5341C75.8603 33.6667 76.1314 33.733 76.4415 33.733C76.6427 33.733 76.8262 33.7045 76.9919 33.6477C77.1576 33.5885 77.3009 33.5009 77.4216 33.3849C77.5423 33.2689 77.6347 33.1257 77.6986 32.9553L78.7036 33.1364C78.6231 33.4323 78.4787 33.6915 78.2703 33.9141C78.0644 34.1342 77.8051 34.3059 77.4926 34.429C77.1825 34.5497 76.8286 34.6101 76.4308 34.6101ZM82.4953 29.0455V29.8977H79.5159V29.0455H82.4953ZM80.3149 27.7386H81.3767V32.8984C81.3767 33.1044 81.4075 33.2595 81.469 33.3636C81.5306 33.4654 81.6099 33.5353 81.7069 33.5732C81.8064 33.6087 81.9141 33.6264 82.0301 33.6264C82.1153 33.6264 82.1899 33.6205 82.2538 33.6087C82.3177 33.5968 82.3675 33.5874 82.403 33.5803L82.5947 34.4574C82.5332 34.4811 82.4456 34.5047 82.3319 34.5284C82.2183 34.5545 82.0763 34.5687 81.9058 34.571C81.6265 34.5758 81.366 34.526 81.1246 34.4219C80.8831 34.3177 80.6878 34.1567 80.5386 33.9389C80.3895 33.7211 80.3149 33.4477 80.3149 33.1186V27.7386ZM86.216 29.0455V29.8977H83.2366V29.0455H86.216ZM84.0356 27.7386H85.0974V32.8984C85.0974 33.1044 85.1282 33.2595 85.1897 33.3636C85.2513 33.4654 85.3306 33.5353 85.4276 33.5732C85.5271 33.6087 85.6348 33.6264 85.7508 33.6264C85.836 33.6264 85.9106 33.6205 85.9745 33.6087C86.0384 33.5968 86.0882 33.5874 86.1237 33.5803L86.3154 34.4574C86.2539 34.4811 86.1663 34.5047 86.0526 34.5284C85.939 34.5545 85.797 34.5687 85.6265 34.571C85.3472 34.5758 85.0867 34.526 84.8453 34.4219C84.6038 34.3177 84.4085 34.1567 84.2593 33.9389C84.1102 33.7211 84.0356 33.4477 84.0356 33.1186V27.7386ZM89.6828 34.6101C89.1454 34.6101 88.6826 34.4953 88.2943 34.2656C87.9084 34.0336 87.6101 33.7081 87.3994 33.2891C87.1911 32.8677 87.0869 32.3741 87.0869 31.8082C87.0869 31.2495 87.1911 30.7571 87.3994 30.331C87.6101 29.9048 87.9037 29.5722 88.2801 29.3331C88.6589 29.094 89.1016 28.9744 89.6082 28.9744C89.916 28.9744 90.2143 29.0253 90.5031 29.1271C90.7919 29.2289 91.0512 29.3887 91.2808 29.6065C91.5104 29.8243 91.6916 30.1072 91.8241 30.4553C91.9567 30.8009 92.023 31.2211 92.023 31.7159V32.0923H87.6871V31.2969H90.9825C90.9825 31.0175 90.9257 30.7701 90.8121 30.5547C90.6984 30.3369 90.5386 30.1652 90.3327 30.0398C90.1291 29.9143 89.8899 29.8516 89.6153 29.8516C89.317 29.8516 89.0566 29.925 88.8341 30.0717C88.6139 30.2161 88.4434 30.4055 88.3227 30.6399C88.2043 30.8719 88.1452 31.1241 88.1452 31.3963V32.0178C88.1452 32.3823 88.2091 32.6925 88.3369 32.9482C88.4671 33.2038 88.6482 33.3991 88.8802 33.5341C89.1122 33.6667 89.3833 33.733 89.6934 33.733C89.8947 33.733 90.0782 33.7045 90.2439 33.6477C90.4096 33.5885 90.5528 33.5009 90.6736 33.3849C90.7943 33.2689 90.8866 33.1257 90.9506 32.9553L91.9555 33.1364C91.875 33.4323 91.7306 33.6915 91.5223 33.9141C91.3163 34.1342 91.0571 34.3059 90.7446 34.429C90.4345 34.5497 90.0805 34.6101 89.6828 34.6101ZM98.1452 34.6101C97.6338 34.6101 97.1875 34.4929 96.8064 34.2585C96.4252 34.0241 96.1293 33.6963 95.9186 33.2749C95.7079 32.8535 95.6025 32.361 95.6025 31.7976C95.6025 31.2318 95.7079 30.737 95.9186 30.3132C96.1293 29.8894 96.4252 29.5604 96.8064 29.326C97.1875 29.0916 97.6338 28.9744 98.1452 28.9744C98.6565 28.9744 99.1028 29.0916 99.4839 29.326C99.8651 29.5604 100.161 29.8894 100.372 30.3132C100.582 30.737 100.688 31.2318 100.688 31.7976C100.688 32.361 100.582 32.8535 100.372 33.2749C100.161 33.6963 99.8651 34.0241 99.4839 34.2585C99.1028 34.4929 98.6565 34.6101 98.1452 34.6101ZM98.1487 33.7188C98.4801 33.7188 98.7548 33.6312 98.9726 33.456C99.1904 33.2808 99.3514 33.0476 99.4555 32.7564C99.5621 32.4652 99.6153 32.1444 99.6153 31.794C99.6153 31.446 99.5621 31.1264 99.4555 30.8352C99.3514 30.5417 99.1904 30.3061 98.9726 30.1286C98.7548 29.951 98.4801 29.8622 98.1487 29.8622C97.8149 29.8622 97.5379 29.951 97.3177 30.1286C97.0999 30.3061 96.9378 30.5417 96.8312 30.8352C96.7271 31.1264 96.675 31.446 96.675 31.794C96.675 32.1444 96.7271 32.4652 96.8312 32.7564C96.9378 33.0476 97.0999 33.2808 97.3177 33.456C97.5379 33.6312 97.8149 33.7188 98.1487 33.7188ZM102.935 31.2614V34.5H101.873V29.0455H102.892V29.9332H102.96C103.085 29.6444 103.282 29.4124 103.549 29.2372C103.819 29.062 104.159 28.9744 104.568 28.9744C104.94 28.9744 105.265 29.0526 105.545 29.2088C105.824 29.3627 106.041 29.5923 106.195 29.8977C106.349 30.2031 106.426 30.5807 106.426 31.0305V34.5H105.364V31.1584C105.364 30.763 105.261 30.4541 105.055 30.2315C104.849 30.0066 104.566 29.8942 104.206 29.8942C103.96 29.8942 103.741 29.9474 103.549 30.054C103.36 30.1605 103.209 30.3168 103.098 30.5227C102.989 30.7263 102.935 30.9725 102.935 31.2614ZM108.911 27.2273V34.5H107.85V27.2273H108.911ZM110.34 34.5V29.0455H111.402V34.5H110.34ZM110.876 28.2038C110.691 28.2038 110.533 28.1423 110.4 28.0192C110.27 27.8937 110.205 27.7446 110.205 27.5717C110.205 27.3965 110.27 27.2474 110.4 27.1243C110.533 26.9988 110.691 26.9361 110.876 26.9361C111.061 26.9361 111.218 26.9988 111.348 27.1243C111.481 27.2474 111.547 27.3965 111.547 27.5717C111.547 27.7446 111.481 27.8937 111.348 28.0192C111.218 28.1423 111.061 28.2038 110.876 28.2038ZM113.892 31.2614V34.5H112.83V29.0455H113.849V29.9332H113.917C114.042 29.6444 114.239 29.4124 114.506 29.2372C114.776 29.062 115.116 28.9744 115.525 28.9744C115.897 28.9744 116.223 29.0526 116.502 29.2088C116.781 29.3627 116.998 29.5923 117.152 29.8977C117.306 30.2031 117.383 30.5807 117.383 31.0305V34.5H116.321V31.1584C116.321 30.763 116.218 30.4541 116.012 30.2315C115.806 30.0066 115.523 29.8942 115.163 29.8942C114.917 29.8942 114.698 29.9474 114.506 30.054C114.317 30.1605 114.166 30.3168 114.055 30.5227C113.946 30.7263 113.892 30.9725 113.892 31.2614ZM121.157 34.6101C120.62 34.6101 120.157 34.4953 119.769 34.2656C119.383 34.0336 119.085 33.7081 118.874 33.2891C118.666 32.8677 118.562 32.3741 118.562 31.8082C118.562 31.2495 118.666 30.7571 118.874 30.331C119.085 29.9048 119.378 29.5722 119.755 29.3331C120.133 29.094 120.576 28.9744 121.083 28.9744C121.391 28.9744 121.689 29.0253 121.978 29.1271C122.267 29.2289 122.526 29.3887 122.755 29.6065C122.985 29.8243 123.166 30.1072 123.299 30.4553C123.431 30.8009 123.498 31.2211 123.498 31.7159V32.0923H119.162V31.2969H122.457C122.457 31.0175 122.4 30.7701 122.287 30.5547C122.173 30.3369 122.013 30.1652 121.807 30.0398C121.604 29.9143 121.365 29.8516 121.09 29.8516C120.792 29.8516 120.531 29.925 120.309 30.0717C120.089 30.2161 119.918 30.4055 119.797 30.6399C119.679 30.8719 119.62 31.1241 119.62 31.3963V32.0178C119.62 32.3823 119.684 32.6925 119.812 32.9482C119.942 33.2038 120.123 33.3991 120.355 33.5341C120.587 33.6667 120.858 33.733 121.168 33.733C121.369 33.733 121.553 33.7045 121.718 33.6477C121.884 33.5885 122.027 33.5009 122.148 33.3849C122.269 33.2689 122.361 33.1257 122.425 32.9553L123.43 33.1364C123.35 33.4323 123.205 33.6915 122.997 33.9141C122.791 34.1342 122.532 34.3059 122.219 34.429C121.909 34.5497 121.555 34.6101 121.157 34.6101ZM127.308 34.5V33.7045L129.769 31.1548C130.032 30.8778 130.248 30.6352 130.419 30.4268C130.592 30.2161 130.721 30.0161 130.806 29.8267C130.891 29.6373 130.934 29.4361 130.934 29.223C130.934 28.9815 130.877 28.7732 130.763 28.598C130.65 28.4205 130.495 28.2843 130.298 28.1896C130.102 28.0926 129.88 28.044 129.634 28.044C129.374 28.044 129.146 28.0973 128.952 28.2038C128.758 28.3104 128.609 28.4607 128.505 28.6548C128.401 28.849 128.348 29.0762 128.348 29.3366H127.301C127.301 28.8939 127.403 28.5069 127.606 28.1754C127.81 27.844 128.089 27.5871 128.444 27.4048C128.799 27.2202 129.203 27.1278 129.655 27.1278C130.112 27.1278 130.515 27.219 130.863 27.4013C131.213 27.5812 131.486 27.8274 131.683 28.1399C131.879 28.45 131.978 28.8004 131.978 29.1911C131.978 29.4609 131.927 29.7249 131.825 29.983C131.726 30.241 131.552 30.5286 131.303 30.8459C131.054 31.1607 130.709 31.5431 130.266 31.9929L128.821 33.5057V33.5589H132.095V34.5H127.308ZM133.132 33.0795V32.1918L136.275 27.2273H136.974V28.5341H136.53L134.282 32.0923V32.1491H138.59V33.0795H133.132ZM136.58 34.5V32.8097L136.587 32.4048V27.2273H137.628V34.5H136.58ZM142.612 26.8864L140.268 35.5938H139.32L141.663 26.8864H142.612ZM143.744 34.5L146.919 28.2216V28.1683H143.247V27.2273H148.055V28.2003L144.891 34.5H143.744Z" fill="white"/>
<defs>
<clipPath id="clip0_245_1059">
<rect width="28" height="28" fill="white" transform="translate(10 10)"/>
</clipPath>
</defs>
</svg>
