<svg width="20" height="20" viewBox="0 0 20 20" fill="none" xmlns="http://www.w3.org/2000/svg">
<path d="M13.2421 2.53998C13.8013 1.9807 14.5597 1.66646 15.3506 1.66638C16.1415 1.6663 16.9 1.9804 17.4592 2.53956C18.0185 3.09872 18.3327 3.85716 18.3328 4.64802C18.3329 5.43887 18.0188 6.19737 17.4596 6.75664L16.7163 7.50081L12.4996 3.28331L13.2421 2.53998ZM11.6163 4.16748L3.28298 12.5C2.94426 12.8383 2.70624 13.2642 2.59548 13.73L1.68298 17.565C1.65827 17.6689 1.66059 17.7773 1.68971 17.8801C1.71883 17.9828 1.77378 18.0763 1.84932 18.1518C1.92486 18.2272 2.01847 18.2821 2.12123 18.3111C2.22399 18.3401 2.33246 18.3423 2.43631 18.3175L6.27048 17.4041C6.73656 17.2935 7.16271 17.0555 7.50131 16.7166L15.833 8.38414L11.6163 4.16748Z" fill="#0171D3"/>
</svg>
