<svg width="43" height="43" viewBox="0 0 43 43" fill="none" xmlns="http://www.w3.org/2000/svg">
<rect x="0.625977" width="42.3738" height="42.5225" rx="7.78581" fill="#0171D3"/>
<g clip-path="url(#clip0_245_1435)">
<path d="M29.3438 14.0905H14.2813C14.0222 14.0905 13.8125 14.3002 13.8125 14.5593C13.8125 14.8184 14.0222 15.028 14.2813 15.028H14.75V16.4343C14.75 16.6934 14.9597 16.903 15.2188 16.903C15.4778 16.903 15.6875 16.6934 15.6875 16.4343V15.028H27.9375V16.4343C27.9375 16.6934 28.1472 16.903 28.4063 16.903C28.6653 16.903 28.875 16.6934 28.875 16.4343V15.028H29.3438C29.6028 15.028 29.8125 14.8184 29.8125 14.5593C29.8125 14.3002 29.6028 14.0905 29.3438 14.0905Z" fill="white"/>
<path d="M27.8295 24.394C27.8736 24.3411 27.9054 24.279 27.9226 24.2123C27.9399 24.1456 27.9421 24.0758 27.9292 24.0081L26.6271 15.9655H22.2812V24.0947C22.2812 24.3538 22.4909 24.5634 22.75 24.5634H27.4687C27.5376 24.5634 27.6056 24.5482 27.668 24.5189C27.7303 24.4896 27.7854 24.447 27.8295 24.394ZM20.875 24.5634C21.1341 24.5634 21.3437 24.3538 21.3437 24.0947V15.9655H16.9979L15.6957 24.0081C15.6696 24.1455 15.7063 24.2869 15.7955 24.394C15.8848 24.5012 16.0166 24.5634 16.1562 24.5634H20.875ZM18.9687 8.56342C18.743 8.56342 18.5494 8.7241 18.5082 8.94563L17.5252 13.153H21.3437V9.03217C21.3437 8.77307 21.1341 8.56342 20.875 8.56342H18.9687Z" fill="white"/>
<path d="M22.75 8.56342H24.6563C24.8819 8.56342 25.0756 8.7241 25.1168 8.94563L26.0998 13.153H22.2812V9.03217C22.2812 8.77307 22.4909 8.56342 22.75 8.56342Z" fill="white"/>
<mask id="mask0_245_1435" style="mask-type:alpha" maskUnits="userSpaceOnUse" x="21" y="16" width="7" height="8">
<rect x="23.999" y="21.9999" width="1" height="1" fill="#D9D9D9"/>
<rect x="25.999" y="22.9999" width="1" height="1" fill="#D9D9D9"/>
<rect x="25.999" y="21.9999" width="1" height="1" fill="#D9D9D9"/>
<rect x="26.999" y="22.9999" width="1" height="1" fill="#D9D9D9"/>
<rect x="23.999" y="15.9999" width="1" height="1" fill="#D9D9D9"/>
<rect x="25.999" y="15.9999" width="1" height="1" fill="#D9D9D9"/>
<rect x="22.999" y="18.9999" width="1" height="1" fill="#D9D9D9"/>
<rect x="23.999" y="17.9999" width="1" height="1" fill="#D9D9D9"/>
<rect x="24.999" y="18.9999" width="1" height="1" fill="#D9D9D9"/>
<rect x="22.999" y="19.9999" width="1" height="1" fill="#D9D9D9"/>
<rect x="21.999" y="20.9999" width="1" height="1" fill="#D9D9D9"/>
<rect x="23.999" y="19.9999" width="1" height="1" fill="#D9D9D9"/>
<rect x="25.999" y="19.9999" width="1" height="1" fill="#D9D9D9"/>
</mask>
<g mask="url(#mask0_245_1435)">
<path d="M29.3438 14.0905H14.2813C14.0222 14.0905 13.8125 14.3002 13.8125 14.5593C13.8125 14.8184 14.0222 15.028 14.2813 15.028H14.75V16.4343C14.75 16.6934 14.9597 16.903 15.2188 16.903C15.4778 16.903 15.6875 16.6934 15.6875 16.4343V15.028H27.9375V16.4343C27.9375 16.6934 28.1472 16.903 28.4063 16.903C28.6653 16.903 28.875 16.6934 28.875 16.4343V15.028H29.3438C29.6028 15.028 29.8125 14.8184 29.8125 14.5593C29.8125 14.3002 29.6028 14.0905 29.3438 14.0905Z" fill="#0171D3"/>
<path d="M27.8295 24.394C27.8736 24.3411 27.9054 24.279 27.9226 24.2123C27.9399 24.1456 27.9421 24.0758 27.9292 24.0081L26.6271 15.9655H22.2812V24.0947C22.2812 24.3538 22.4909 24.5634 22.75 24.5634H27.4687C27.5376 24.5634 27.6056 24.5482 27.668 24.5189C27.7303 24.4896 27.7854 24.447 27.8295 24.394ZM20.875 24.5634C21.1341 24.5634 21.3437 24.3538 21.3437 24.0947V15.9655H16.9979L15.6957 24.0081C15.6696 24.1455 15.7063 24.2869 15.7955 24.394C15.8848 24.5012 16.0166 24.5634 16.1562 24.5634H20.875ZM18.9687 8.56342C18.743 8.56342 18.5494 8.7241 18.5082 8.94563L17.5252 13.153H21.3437V9.03217C21.3437 8.77307 21.1341 8.56342 20.875 8.56342H18.9687Z" fill="#0171D3"/>
<path d="M22.75 8.56342H24.6563C24.8819 8.56342 25.0756 8.7241 25.1168 8.94563L26.0998 13.153H22.2812V9.03217C22.2812 8.77307 22.4909 8.56342 22.75 8.56342Z" fill="#0171D3"/>
</g>
</g>
<path d="M8.24351 31.959V28.0389H10.885V28.7223H9.07233V29.6564H10.7491V30.3397H9.07233V31.2757H10.8927V31.959H8.24351ZM13.3604 30.0258V30.6728H11.5727V30.0258H13.3604ZM16.7963 29.019L15.7684 31.959H14.8496L13.8217 29.019H14.6831L15.2937 31.1226H15.3243L15.933 29.019H16.7963ZM17.2136 31.959V29.019H18.029V31.959H17.2136ZM17.6232 28.64C17.502 28.64 17.398 28.5998 17.3112 28.5194C17.2257 28.4377 17.183 28.3401 17.183 28.2265C17.183 28.1142 17.2257 28.0179 17.3112 27.9375C17.398 27.8558 17.502 27.815 17.6232 27.815C17.7444 27.815 17.8478 27.8558 17.9333 27.9375C18.0201 28.0179 18.0634 28.1142 18.0634 28.2265C18.0634 28.3401 18.0201 28.4377 17.9333 28.5194C17.8478 28.5998 17.7444 28.64 17.6232 28.64ZM20.0068 33.1228C19.7426 33.1228 19.5161 33.0865 19.3272 33.0137C19.1397 32.9423 18.9904 32.8446 18.8793 32.7209C18.7683 32.5971 18.6962 32.458 18.663 32.3036L19.4172 32.2021C19.4402 32.2608 19.4766 32.3157 19.5263 32.3668C19.5761 32.4178 19.6418 32.4586 19.7235 32.4893C19.8064 32.5212 19.9072 32.5371 20.0259 32.5371C20.2033 32.5371 20.3494 32.4937 20.4642 32.407C20.5804 32.3215 20.6384 32.1779 20.6384 31.9763V31.4384H20.604C20.5682 31.5201 20.5146 31.5973 20.4432 31.67C20.3717 31.7427 20.2798 31.8021 20.1676 31.848C20.0553 31.894 19.9213 31.9169 19.7656 31.9169C19.5448 31.9169 19.3438 31.8659 19.1626 31.7638C18.9827 31.6604 18.8391 31.5028 18.732 31.291C18.626 31.0779 18.5731 30.8087 18.5731 30.4833C18.5731 30.1502 18.6273 29.872 18.7358 29.6487C18.8443 29.4254 18.9884 29.2582 19.1684 29.1472C19.3496 29.0362 19.548 28.9807 19.7637 28.9807C19.9283 28.9807 20.0661 29.0087 20.1771 29.0649C20.2881 29.1198 20.3775 29.1887 20.4451 29.2716C20.514 29.3533 20.567 29.4337 20.604 29.5128H20.6346V29.019H21.4443V31.9878C21.4443 32.2379 21.383 32.4471 21.2605 32.6156C21.138 32.784 20.9683 32.9104 20.7514 32.9946C20.5357 33.0801 20.2875 33.1228 20.0068 33.1228ZM20.024 31.3044C20.1554 31.3044 20.2664 31.2719 20.357 31.2068C20.4489 31.1404 20.5191 31.046 20.5676 30.9235C20.6174 30.7997 20.6423 30.6517 20.6423 30.4794C20.6423 30.3072 20.618 30.1579 20.5695 30.0315C20.521 29.9039 20.4508 29.805 20.359 29.7348C20.2671 29.6646 20.1554 29.6296 20.024 29.6296C19.89 29.6296 19.7771 29.6659 19.6852 29.7387C19.5933 29.8101 19.5238 29.9097 19.4766 30.0373C19.4293 30.1649 19.4057 30.3123 19.4057 30.4794C19.4057 30.6491 19.4293 30.7959 19.4766 30.9197C19.525 31.0422 19.5946 31.1372 19.6852 31.2049C19.7771 31.2712 19.89 31.3044 20.024 31.3044ZM22.9086 30.2593V31.959H22.0932V29.019H22.8703V29.5377H22.9047C22.9698 29.3667 23.0789 29.2314 23.2321 29.1319C23.3852 29.0311 23.5709 28.9807 23.7891 28.9807C23.9932 28.9807 24.1713 29.0253 24.3231 29.1147C24.475 29.204 24.593 29.3316 24.6772 29.4975C24.7614 29.6621 24.8036 29.8586 24.8036 30.087V31.959H23.9881V30.2325C23.9894 30.0526 23.9435 29.9122 23.8503 29.8114C23.7572 29.7093 23.6289 29.6583 23.4656 29.6583C23.3558 29.6583 23.2589 29.6819 23.1746 29.7291C23.0917 29.7763 23.0266 29.8452 22.9794 29.9358C22.9335 30.0251 22.9099 30.133 22.9086 30.2593ZM26.7861 32.0165C26.4837 32.0165 26.2234 31.9552 26.0052 31.8327C25.7882 31.7089 25.621 31.5341 25.5036 31.3082C25.3863 31.0811 25.3276 30.8125 25.3276 30.5024C25.3276 30.2 25.3863 29.9345 25.5036 29.7061C25.621 29.4777 25.7863 29.2997 25.9994 29.1721C26.2138 29.0445 26.4652 28.9807 26.7536 28.9807C26.9475 28.9807 27.1281 29.0119 27.2953 29.0745C27.4637 29.1357 27.6105 29.2282 27.7355 29.352C27.8619 29.4758 27.9601 29.6315 28.0303 29.8191C28.1005 30.0054 28.1356 30.2236 28.1356 30.4737V30.6976H25.653V30.1923H27.368C27.368 30.0749 27.3425 29.9709 27.2914 29.8803C27.2404 29.7897 27.1696 29.7189 27.079 29.6678C26.9896 29.6155 26.8856 29.5894 26.767 29.5894C26.6432 29.5894 26.5334 29.6181 26.4377 29.6755C26.3433 29.7316 26.2693 29.8076 26.2157 29.9033C26.1621 29.9977 26.1347 30.103 26.1334 30.2191V30.6996C26.1334 30.845 26.1602 30.9707 26.2138 31.0766C26.2687 31.1825 26.3459 31.2642 26.4454 31.3216C26.5449 31.3791 26.663 31.4078 26.7995 31.4078C26.8901 31.4078 26.9731 31.395 27.0483 31.3695C27.1236 31.344 27.1881 31.3057 27.2417 31.2546C27.2953 31.2036 27.3361 31.1411 27.3642 31.0671L28.1183 31.1168C28.0801 31.298 28.0016 31.4563 27.8829 31.5915C27.7655 31.7255 27.6137 31.8302 27.4273 31.9054C27.2423 31.9795 27.0286 32.0165 26.7861 32.0165ZM30.2315 29.019V29.6315H28.461V29.019H30.2315ZM28.8629 28.3146H29.6784V31.0556C29.6784 31.1309 29.6898 31.1896 29.7128 31.2317C29.7358 31.2725 29.7677 31.3012 29.8085 31.3178C29.8506 31.3344 29.8991 31.3427 29.954 31.3427C29.9923 31.3427 30.0306 31.3395 30.0688 31.3331C30.1071 31.3255 30.1365 31.3197 30.1569 31.3159L30.2851 31.9227C30.2443 31.9354 30.1869 31.9501 30.1129 31.9667C30.0388 31.9846 29.9489 31.9954 29.843 31.9992C29.6465 32.0069 29.4742 31.9807 29.3262 31.9208C29.1794 31.8608 29.0652 31.7676 28.9835 31.6413C28.9019 31.515 28.8617 31.3555 28.8629 31.1628V28.3146ZM32.3265 29.019V29.6315H30.556V29.019H32.3265ZM30.9579 28.3146H31.7734V31.0556C31.7734 31.1309 31.7848 31.1896 31.8078 31.2317C31.8308 31.2725 31.8627 31.3012 31.9035 31.3178C31.9456 31.3344 31.9941 31.3427 32.049 31.3427C32.0873 31.3427 32.1256 31.3395 32.1638 31.3331C32.2021 31.3255 32.2315 31.3197 32.2519 31.3159L32.3801 31.9227C32.3393 31.9354 32.2819 31.9501 32.2079 31.9667C32.1339 31.9846 32.0439 31.9954 31.938 31.9992C31.7415 32.0069 31.5692 31.9807 31.4212 31.9208C31.2744 31.8608 31.1602 31.7676 31.0785 31.6413C30.9969 31.515 30.9567 31.3555 30.9579 31.1628V28.3146ZM34.166 32.0165C33.8636 32.0165 33.6033 31.9552 33.3851 31.8327C33.1681 31.7089 33.001 31.5341 32.8836 31.3082C32.7662 31.0811 32.7075 30.8125 32.7075 30.5024C32.7075 30.2 32.7662 29.9345 32.8836 29.7061C33.001 29.4777 33.1662 29.2997 33.3793 29.1721C33.5937 29.0445 33.8451 28.9807 34.1335 28.9807C34.3274 28.9807 34.508 29.0119 34.6752 29.0745C34.8436 29.1357 34.9904 29.2282 35.1154 29.352C35.2418 29.4758 35.34 29.6315 35.4102 29.8191C35.4804 30.0054 35.5155 30.2236 35.5155 30.4737V30.6976H33.0329V30.1923H34.7479C34.7479 30.0749 34.7224 29.9709 34.6713 29.8803C34.6203 29.7897 34.5495 29.7189 34.4589 29.6678C34.3696 29.6155 34.2656 29.5894 34.1469 29.5894C34.0231 29.5894 33.9134 29.6181 33.8176 29.6755C33.7232 29.7316 33.6492 29.8076 33.5956 29.9033C33.542 29.9977 33.5146 30.103 33.5133 30.2191V30.6996C33.5133 30.845 33.5401 30.9707 33.5937 31.0766C33.6486 31.1825 33.7258 31.2642 33.8253 31.3216C33.9248 31.3791 34.0429 31.4078 34.1794 31.4078C34.27 31.4078 34.353 31.395 34.4283 31.3695C34.5035 31.344 34.568 31.3057 34.6216 31.2546C34.6752 31.2036 34.716 31.1411 34.7441 31.0671L35.4982 31.1168C35.46 31.298 35.3815 31.4563 35.2628 31.5915C35.1454 31.7255 34.9936 31.8302 34.8073 31.9054C34.6222 31.9795 34.4085 32.0165 34.166 32.0165Z" fill="white"/>
<defs>
<clipPath id="clip0_245_1435">
<rect width="16" height="16" fill="white" transform="translate(13.8125 8.56342)"/>
</clipPath>
</defs>
</svg>
